<?xml version="1.0" encoding="utf-8"?>

<!DOCTYPE svg PUBLIC "-//W3C//DTD SVG 1.1//EN" "http://www.w3.org/Graphics/SVG/1.1/DTD/svg11.dtd">
<!-- Uploaded to: SVG Repo, www.svgrepo.com, Generator: SVG Repo Mixer Tools -->
<svg version="1.1" id="_x32_" xmlns="http://www.w3.org/2000/svg" xmlns:xlink="http://www.w3.org/1999/xlink" 
	 viewBox="0 0 512 512"  xml:space="preserve">
<style type="text/css">
	.st0{fill:#FFFFFF;}
</style>
<g>
	<rect x="193.939" y="385.88" class="st0" width="2.2939" height="4.014"/>
	<rect x="215.787" y="312.176" class="st0" width="2.6301" height="3.6572"/>
	<rect x="143.347" y="385.88" class="st0" width="2.2939" height="4.014"/>
	<rect x="269.919" y="312.176" class="st0" width="2.6294" height="3.6572"/>
	<rect x="161.667" y="312.176" class="st0" width="2.6294" height="3.6572"/>
	<rect x="244.531" y="385.88" class="st0" width="2.2939" height="4.014"/>
	<rect x="295.122" y="385.88" class="st0" width="2.294" height="4.014"/>
	<path class="st0" d="M423.571,402.456v-9.599c5.026-7.469,7.822-16.342,7.822-25.536c0-16.881-9.174-31.659-22.793-39.614
		c9.792-8.614,16.003-21.208,16.003-35.101c0-13.713-6.178-26.341-16.083-35.034c0.34-2.524,0.453-5.086,0.066-7.656
		c-8.447-55.977-47.336-102.687-99.485-121.866c0-0.007,0-0.007,0-0.014c2.21-4.553,3.448-9.652,3.448-15.044
		c0-9.606-3.954-18.293-10.304-24.564c0.658-2.782,1.038-5.671,1.038-8.647V60.47c0-4.979-0.965-9.845-2.909-14.565l-9.439-22.64
		C285.023,9.134,271.311,0,256,0c-15.311,0-29.024,9.134-34.948,23.299l-9.412,22.593c-1.937,4.633-2.916,9.54-2.916,14.579v19.311
		c0,2.976,0.38,5.865,1.032,8.647c-6.35,6.264-10.312,14.958-10.312,24.564c0,5.392,1.238,10.491,3.455,15.044
		c-0.006,0.007-0.006,0.007-0.006,0.014c-52.15,19.184-91.038,65.896-99.472,121.866c-0.386,2.57-0.273,5.126,0.066,7.649
		c-9.912,8.7-16.09,21.322-16.09,35.041c0,13.893,6.21,26.487,16.003,35.101c-13.62,7.948-22.793,22.733-22.793,39.614
		c0,9.187,2.796,18.067,7.822,25.53v9.605c-17.601,7.323-30.002,24.697-30.002,44.913v37.365c0,15.057,12.208,27.266,27.266,27.266
		h340.614c15.057,0,27.266-12.209,27.266-27.266v-37.365C453.573,427.152,441.171,409.778,423.571,402.456z M235.989,60.47
		c0-1.398,0.273-2.783,0.812-4.074l9.419-22.613c1.651-3.948,5.505-6.518,9.779-6.518c4.273,0,8.128,2.57,9.779,6.518l9.426,22.613
		c0.532,1.291,0.812,2.675,0.812,4.074v19.311c0,5.851-4.746,10.591-10.598,10.591H246.58c-5.851,0-10.591-4.74-10.591-10.591V60.47
		z M229.406,148.7c-1.631-1.338-2.696-3.342-2.696-5.618c0-4.021,3.268-7.283,7.302-7.283h1.178v-15.523h-1.178
		c-4.034,0-7.302-3.256-7.302-7.283s3.268-7.289,7.302-7.289h43.988c4.021,0,7.283,3.262,7.283,7.289s-3.262,7.283-7.283,7.283
		h-1.185v15.523h1.185c4.021,0,7.283,3.262,7.283,7.283c0,2.276-1.066,4.28-2.69,5.618c51.351,10.93,91.125,52.874,99.034,105.283
		H130.38C138.282,201.574,178.056,159.63,229.406,148.7z M426.307,484.734H85.693v-37.365c0-11.789,9.56-21.348,21.348-21.348h8.654
		v-43.616c-4.72-3.368-7.822-8.846-7.822-15.084c0-10.257,8.314-18.572,18.565-18.572h7.403V312.13
		c-10.624-0.213-19.178-8.854-19.178-19.524c0-8.96,6.058-16.429,14.273-18.752h254.129c8.214,2.324,14.272,9.793,14.272,18.752
		c0,10.67-8.554,19.311-19.172,19.524v36.618h7.395c10.252,0,18.566,8.315,18.566,18.572c0,6.238-3.102,11.723-7.822,15.091v43.609
		h8.66c11.782,0,21.342,9.559,21.342,21.348V484.734z"/>
	<rect x="345.713" y="385.88" class="st0" width="2.2933" height="4.014"/>
	<rect x="324.039" y="312.176" class="st0" width="2.6294" height="3.6572"/>
</g>
</svg>